<svg baseProfile="full" height="400" version="1.1" viewBox="0 0 400 400" width="400" xmlns="http://www.w3.org/2000/svg" xmlns:ev="http://www.w3.org/2001/xml-events" xmlns:xlink="http://www.w3.org/1999/xlink"><defs><clipPath id="piece_clip_2"><polygon points="328.8372360701,302.52410479183595 327.4503736762896,298.1608079703341 314.5606921542512,273.811490718255 204.92728001111038,67.35818466925744 204.0959969446208,66.03558618060445 203.37782328815243,65.17705319888118 202.62687999345468,65.31241841217772 202.13429646137155,68.14457401602688 201.85102062666243,72.97850444078468 201.60224191095722,91.041032743567 199.60687266485888,305.4276876342922 199.21370072740856,347.7868020078512 199.67427757748985,349.9910729577201 204.5516893767116,359.3217238017678 208.37115166615354,365.7837973180828 211.34054387582123,365.94997901347654 212.17383934710048,365.9674132247951 215.63959107272396,365.90577347746114 221.88608498251796,365.16879200626926 241.16025680229149,361.2952242977518 251.42741842361565,358.3570663389858 254.90253798775268,357.3165853259134 255.43372624744876,357.1341307348015 272.7196561493156,349.9111203081473 279.678221225881,346.2210568158439 286.8924362521852,342.076435570612 296.5848121604393,335.6940716780069 305.0229325228687,329.2301752133869 309.1060102649304,325.7200802139244 313.2021723854912,321.9722809263067 319.4032521971939,316.24628613256044 324.1307755114966,310.6852453798168 324.79208916286296,309.86009295141287 328.78397322320745,304.3715420729055" /></clipPath></defs><rect fill="white" height="400" width="400" x="0" y="0" /><polygon fill="currentColor" opacity="0.8" points="328.8372360701,302.52410479183595 327.4503736762896,298.1608079703341 314.5606921542512,273.811490718255 204.92728001111038,67.35818466925744 204.0959969446208,66.03558618060445 203.37782328815243,65.17705319888118 202.62687999345468,65.31241841217772 202.13429646137155,68.14457401602688 201.85102062666243,72.97850444078468 201.60224191095722,91.041032743567 199.60687266485888,305.4276876342922 199.21370072740856,347.7868020078512 199.67427757748985,349.9910729577201 204.5516893767116,359.3217238017678 208.37115166615354,365.7837973180828 211.34054387582123,365.94997901347654 212.17383934710048,365.9674132247951 215.63959107272396,365.90577347746114 221.88608498251796,365.16879200626926 241.16025680229149,361.2952242977518 251.42741842361565,358.3570663389858 254.90253798775268,357.3165853259134 255.43372624744876,357.1341307348015 272.7196561493156,349.9111203081473 279.678221225881,346.2210568158439 286.8924362521852,342.076435570612 296.5848121604393,335.6940716780069 305.0229325228687,329.2301752133869 309.1060102649304,325.7200802139244 313.2021723854912,321.9722809263067 319.4032521971939,316.24628613256044 324.1307755114966,310.6852453798168 324.79208916286296,309.86009295141287 328.78397322320745,304.3715420729055" stroke="darkgray" stroke-width="2" /><g clip-path="url(#piece_clip_2)"><circle cx="200.0" cy="316.02564102564105" fill="indianred" opacity="0.7" r="32.56410256410256" stroke="darkred" stroke-width="1" /><circle cx="295.5128205128205" cy="263.46153846153845" fill="indianred" opacity="0.7" r="32.56410256410256" stroke="darkred" stroke-width="1" /></g></svg>
