<?xml version="1.0" encoding="utf-8" ?>
<svg baseProfile="full" height="635" version="1.1" width="635" xmlns="http://www.w3.org/2000/svg" xmlns:ev="http://www.w3.org/2001/xml-events" xmlns:xlink="http://www.w3.org/1999/xlink">
<defs>
<clipPath id="piece_clip_1">
<polygon points="548.4950033386732,199.30227262993918 554.9696995059329,191.4699666647679 570.1608896144521,208.53231782105257 585.8544088367166,230.62752352347007 587.4850069837521,233.39842532800333 600.5663274002535,257.5172509380154 604.0638730428551,264.07415099728854 608.913573183562,274.9878347947007 610.6497436107359,279.05406641566606 612.8291516917861,285.240971219805 620.0503572699813,307.3987917278973 621.5990478238475,313.11561973739356 623.10563717585,320.20353820682016 626.5080373363796,338.9210330119488 627.9610359214025,349.81390861894056 628.6647527443757,357.0152592366133 628.933288463272,368.7538708833726 629.0232554279821,372.7496039167501 628.7508640691776,385.8875055501423 627.4768565202382,399.3879685836619 626.0800523152429,409.1351835522189 624.3842918146782,418.8898803034459 620.1489955096368,435.91485066941823 617.7355785317068,444.0658769637545 612.803608043916,456.6213930527489 609.8514502093001,463.9477472688893 598.2890409768531,486.61744157344475 588.7936311781436,500.8140133735321 585.4740969903264,505.7185983039152 571.6310176650175,522.4572601772918 566.071805300109,528.3589410590204 554.5156648045634,539.3943288811397 552.8266679119339,540.8003878037484 532.9344650050755,556.3934175938977 518.556698337828,566.0515598799495 501.0209025633708,576.2162719906316 480.1642939738754,585.4411710316424 468.0881223228222,590.31838451748 449.0635583304528,595.735085710715 429.92582752345663,600.6181202107009 417.339423341127,603.0505271060804 412.5581832501921,603.8501648006702 411.15433659757775,604.0780546920969 392.05735252393896,605.9224168221856 385.64396189393057,606.518779549596 373.97909698259554,606.8752101878299 365.9581055464645,607.1191693673379 343.5440538027621,606.3970543965858 328.017721153186,605.1714842146512 322.0805683273713,604.4526716912285 321.3804869627785,602.1321830436607 322.1093538710657,599.6834531759405 326.0592138550431,592.284034266615 341.06274804191094,565.5901380505204 416.56960415505813,431.711576885985 527.2266935348755,235.8957599499025 533.7534538600337,224.36535541379754" />
</clipPath>
</defs>
<g clip-path="url(#piece_clip_1)">
<image height="635" width="635" x="0" y="0" xlink:href="uploads/4e2e24c9-c895-489a-a62b-91fa02a53cc6.jpg" />
<circle cx="314.00762012426753" cy="153.0200516727487" fill="indianred" fill-opacity="0.7" r="43.59375000000001" stroke="darkred" stroke-width="2" />
<circle cx="493.88910967780066" cy="248.6147369623704" fill="indianred" fill-opacity="0.7" r="45.77343750000001" stroke="darkred" stroke-width="2" />
<circle cx="145.62679192482952" cy="279.92900945202996" fill="indianred" fill-opacity="0.7" r="62.12109375000001" stroke="darkred" stroke-width="2" />
<circle cx="243.53125876673204" cy="352.22395769943137" fill="indianred" fill-opacity="0.7" r="63.21093750000001" stroke="darkred" stroke-width="2" />
<circle cx="485.41905898984146" cy="447.4363391773215" fill="indianred" fill-opacity="0.7" r="63.21093750000001" stroke="darkred" stroke-width="2" />
</g>
<polygon points="548.4950033386732,199.30227262993918 554.9696995059329,191.4699666647679 570.1608896144521,208.53231782105257 585.8544088367166,230.62752352347007 587.4850069837521,233.39842532800333 600.5663274002535,257.5172509380154 604.0638730428551,264.07415099728854 608.913573183562,274.9878347947007 610.6497436107359,279.05406641566606 612.8291516917861,285.240971219805 620.0503572699813,307.3987917278973 621.5990478238475,313.11561973739356 623.10563717585,320.20353820682016 626.5080373363796,338.9210330119488 627.9610359214025,349.81390861894056 628.6647527443757,357.0152592366133 628.933288463272,368.7538708833726 629.0232554279821,372.7496039167501 628.7508640691776,385.8875055501423 627.4768565202382,399.3879685836619 626.0800523152429,409.1351835522189 624.3842918146782,418.8898803034459 620.1489955096368,435.91485066941823 617.7355785317068,444.0658769637545 612.803608043916,456.6213930527489 609.8514502093001,463.9477472688893 598.2890409768531,486.61744157344475 588.7936311781436,500.8140133735321 585.4740969903264,505.7185983039152 571.6310176650175,522.4572601772918 566.071805300109,528.3589410590204 554.5156648045634,539.3943288811397 552.8266679119339,540.8003878037484 532.9344650050755,556.3934175938977 518.556698337828,566.0515598799495 501.0209025633708,576.2162719906316 480.1642939738754,585.4411710316424 468.0881223228222,590.31838451748 449.0635583304528,595.735085710715 429.92582752345663,600.6181202107009 417.339423341127,603.0505271060804 412.5581832501921,603.8501648006702 411.15433659757775,604.0780546920969 392.05735252393896,605.9224168221856 385.64396189393057,606.518779549596 373.97909698259554,606.8752101878299 365.9581055464645,607.1191693673379 343.5440538027621,606.3970543965858 328.017721153186,605.1714842146512 322.0805683273713,604.4526716912285 321.3804869627785,602.1321830436607 322.1093538710657,599.6834531759405 326.0592138550431,592.284034266615 341.06274804191094,565.5901380505204 416.56960415505813,431.711576885985 527.2266935348755,235.8957599499025 533.7534538600337,224.36535541379754" fill="none" stroke="brown" stroke-width="3" />
</svg>
