<svg baseProfile="full" height="400" version="1.1" viewBox="0 0 400 400" width="400" xmlns="http://www.w3.org/2000/svg" xmlns:ev="http://www.w3.org/2001/xml-events" xmlns:xlink="http://www.w3.org/1999/xlink"><defs><clipPath id="piece_clip_0"><polygon points="205.8212921259823,363.13112653544124 199.4341135882868,349.55144684957656 177.32939075964623,305.6240870234393 112.82717691332759,177.47231061556624 81.85756358856744,115.95223962692411 70.90087128436969,94.96226965750532 67.23254645133702,99.44176533410953 64.91117962972554,102.49259825541476 61.47427933847826,107.56924440960162 60.19119474531425,109.65627055351845 59.31289795374283,111.13269884522943 52.849112924448754,122.143070488342 47.575270742998406,132.9369701169407 45.4991090205034,137.50868603720505 41.06869296190889,150.38743342490946 37.76900586798173,162.04721999025577 36.64728403512352,167.41810578072662 34.96363576918684,176.9414088225658 33.63630162796679,191.86511371627884 33.352850348469374,199.1909834274471 33.90257913482965,209.68008485840622 34.19462734757667,213.98669276258545 35.6182700548884,226.74800094227157 36.75085594789477,232.91688794627518 37.69166765977942,237.38488663253924 38.584161361909196,241.05257196310865 39.65441501862801,245.21347755886586 41.97269831130932,252.73689025409416 45.975527189365984,263.33308124675193 51.71421326319244,275.6105561430654 57.92803249198149,286.91004678018913 62.97560572518309,294.69613172755817 65.01578162104389,297.38211358610596 73.58070029258361,308.6036036569947 79.81987917848471,315.3647806365728 84.5673293264777,320.18832684681706 91.26755001443603,326.03955520951234 97.6303381252205,331.50915917292326 103.83635365886984,336.03936105083176 109.17276248350024,339.4322931220976 121.24625527115958,346.6250335593643 124.62524415062677,348.58319204207186 126.82181836277371,349.61675293301784 137.7214985359519,354.55380943978435 145.265173089871,357.2800434151669 149.960583792675,358.97503237673885 150.8541906692349,359.2389856161232 167.53218396210724,363.27197576984685 174.5494788398572,364.64516171652775 181.8387068199736,365.4606528096732 206.35450372104341,366.35125099162184 206.52483707278688,365.9154255727671 206.29789189690644,364.81806887531286" /></clipPath></defs><rect fill="white" height="400" width="400" x="0" y="0" /><polygon fill="currentColor" opacity="0.8" points="205.8212921259823,363.13112653544124 199.4341135882868,349.55144684957656 177.32939075964623,305.6240870234393 112.82717691332759,177.47231061556624 81.85756358856744,115.95223962692411 70.90087128436969,94.96226965750532 67.23254645133702,99.44176533410953 64.91117962972554,102.49259825541476 61.47427933847826,107.56924440960162 60.19119474531425,109.65627055351845 59.31289795374283,111.13269884522943 52.849112924448754,122.143070488342 47.575270742998406,132.9369701169407 45.4991090205034,137.50868603720505 41.06869296190889,150.38743342490946 37.76900586798173,162.04721999025577 36.64728403512352,167.41810578072662 34.96363576918684,176.9414088225658 33.63630162796679,191.86511371627884 33.352850348469374,199.1909834274471 33.90257913482965,209.68008485840622 34.19462734757667,213.98669276258545 35.6182700548884,226.74800094227157 36.75085594789477,232.91688794627518 37.69166765977942,237.38488663253924 38.584161361909196,241.05257196310865 39.65441501862801,245.21347755886586 41.97269831130932,252.73689025409416 45.975527189365984,263.33308124675193 51.71421326319244,275.6105561430654 57.92803249198149,286.91004678018913 62.97560572518309,294.69613172755817 65.01578162104389,297.38211358610596 73.58070029258361,308.6036036569947 79.81987917848471,315.3647806365728 84.5673293264777,320.18832684681706 91.26755001443603,326.03955520951234 97.6303381252205,331.50915917292326 103.83635365886984,336.03936105083176 109.17276248350024,339.4322931220976 121.24625527115958,346.6250335593643 124.62524415062677,348.58319204207186 126.82181836277371,349.61675293301784 137.7214985359519,354.55380943978435 145.265173089871,357.2800434151669 149.960583792675,358.97503237673885 150.8541906692349,359.2389856161232 167.53218396210724,363.27197576984685 174.5494788398572,364.64516171652775 181.8387068199736,365.4606528096732 206.35450372104341,366.35125099162184 206.52483707278688,365.9154255727671 206.29789189690644,364.81806887531286" stroke="darkgray" stroke-width="2" /><g clip-path="url(#piece_clip_0)"><circle cx="200.0" cy="316.02564102564105" fill="indianred" opacity="0.7" r="32.56410256410256" stroke="darkred" stroke-width="1" /><circle cx="100.64102564102564" cy="231.4102564102564" fill="indianred" opacity="0.9" r="32.56410256410256" stroke="darkred" stroke-width="1" /></g></svg>
