<svg baseProfile="full" height="400" version="1.1" viewBox="0 0 400 400" width="400" xmlns="http://www.w3.org/2000/svg" xmlns:ev="http://www.w3.org/2001/xml-events" xmlns:xlink="http://www.w3.org/1999/xlink"><defs><clipPath id="piece_clip_3"><polygon points="71.24819499919666,94.18953426551819 74.51146235712653,101.09869591948079 109.44296141055347,170.71266863830078 117.71700118356019,187.17233246585468 127.00494688235216,205.63520300462923 156.15326179541594,263.5415672038415 184.84049345628392,320.52524664715463 198.9100632745153,348.031449903554 199.1715485805524,344.2722933091814 199.8953304346178,271.8029072356305 200.0257793131736,258.42268299250185 201.32768036366005,116.45955259795358 201.66153491613716,62.622919831888765 201.52341798508124,61.6044580320092 198.48754581294332,55.31799358655402 186.99159209868353,33.870495912930274 176.2698465294193,35.13598015419265 172.2663256642411,35.85136301284279 160.91200287174095,38.23272012177601 150.38697982671363,41.272731481473336 144.35589596696911,43.08361029078565 132.0431858998562,47.92726321113048 118.23886385506967,55.03892879421684 116.92833759201527,55.74907620932849 112.03025214804259,58.621908353082574 109.40365268638728,60.17874578693117 101.37666300441364,65.93131756214909 95.15414182164058,70.59089676675826 88.47565318557766,76.27765542583376 84.58057904186067,79.97736330901449" /></clipPath></defs><rect fill="white" height="400" width="400" x="0" y="0" /><polygon fill="currentColor" opacity="0.8" points="71.24819499919666,94.18953426551819 74.51146235712653,101.09869591948079 109.44296141055347,170.71266863830078 117.71700118356019,187.17233246585468 127.00494688235216,205.63520300462923 156.15326179541594,263.5415672038415 184.84049345628392,320.52524664715463 198.9100632745153,348.031449903554 199.1715485805524,344.2722933091814 199.8953304346178,271.8029072356305 200.0257793131736,258.42268299250185 201.32768036366005,116.45955259795358 201.66153491613716,62.622919831888765 201.52341798508124,61.6044580320092 198.48754581294332,55.31799358655402 186.99159209868353,33.870495912930274 176.2698465294193,35.13598015419265 172.2663256642411,35.85136301284279 160.91200287174095,38.23272012177601 150.38697982671363,41.272731481473336 144.35589596696911,43.08361029078565 132.0431858998562,47.92726321113048 118.23886385506967,55.03892879421684 116.92833759201527,55.74907620932849 112.03025214804259,58.621908353082574 109.40365268638728,60.17874578693117 101.37666300441364,65.93131756214909 95.15414182164058,70.59089676675826 88.47565318557766,76.27765542583376 84.58057904186067,79.97736330901449" stroke="darkgray" stroke-width="2" /><g clip-path="url(#piece_clip_3)"><circle cx="200.0" cy="316.02564102564105" fill="indianred" opacity="0.7" r="32.56410256410256" stroke="darkred" stroke-width="1" /><circle cx="156.4102564102564" cy="187.82051282051282" fill="indianred" opacity="0.9" r="32.56410256410256" stroke="darkred" stroke-width="1" /></g></svg>
