<?xml version="1.0" encoding="utf-8" ?>
<svg baseProfile="full" height="635" version="1.1" width="635" xmlns="http://www.w3.org/2000/svg" xmlns:ev="http://www.w3.org/2001/xml-events" xmlns:xlink="http://www.w3.org/1999/xlink">
<defs>
<clipPath id="piece_clip_0">
<polygon points="321.5116398417157,72.89561296262178 299.42263591196433,116.89015046892544 284.74918975207174,145.86137557198026 207.49527147783635,298.2065826793405 137.4364181875688,436.3498416149632 125.09829127694877,460.5189250267357 110.45720491913625,488.8530607991444 106.51471149354742,495.0109733810277 98.69466419665821,486.1359816200969 94.17247117078833,480.9820237747549 87.41670483980906,472.4517188848834 84.87389506623336,468.95890003852253 83.12812879803624,466.4911434934885 70.2646229728079,448.0972947624839 59.573740259140266,430.1798351736086 55.330228556579186,422.6079724992546 45.9376333967553,401.43078560223125 38.718944888049634,382.3348049601285 36.113040870385134,373.5815552189348 32.04387727867197,358.09382949367057 28.035222633084402,333.9649928381755 26.73231513261271,322.1601776428173 26.59276037827891,305.3613392690503 26.655285820033612,298.4712465527775 27.848856723294375,278.1148472404591 29.22848247209339,268.32242997118334 30.445367195465906,261.2429926176525 31.66138733919331,255.44461031986924 33.145223125124176,248.8727114004564 36.520189926600324,237.0313014527445 42.60599512863041,220.43316433864402 51.64555055592626,201.32026386940862 61.648871057217036,183.83048775543472 69.9250684434104,171.86157825119508 73.32000015158604,167.7649101556679 87.5782519555053,150.65433565945037 98.1173592078076,140.46132129265226 106.17133298163293,133.22143108785625 117.64140825935573,124.54067211738843 128.54322178530734,116.43683257889944 139.26329903455257,109.8258835309909 148.53549586120553,104.94887828091089 169.5658328802469,94.69215707251414 175.45748248788303,91.90980009924192 179.31330272168424,90.48580542222811 198.46705901905273,83.72771071092865 211.79795669904672,80.16053860224594 220.09571500768897,77.94327888060059 221.68123238013385,77.61552953045447 251.36927325689203,72.93431959638815 263.8955171465993,71.4849490128741 276.97313326364474,70.96127073131731 321.15693283044857,72.17675975064509" />
</clipPath>
</defs>
<g clip-path="url(#piece_clip_0)">
<image height="635" width="635" x="0" y="0" xlink:href="uploads/5e8a94a5-a8da-4ebc-be37-263d8408445c.jpg" />
<circle cx="314.00762012426753" cy="153.0200516727487" fill="indianred" fill-opacity="0.7" r="43.59375000000001" stroke="darkred" stroke-width="2" />
<circle cx="493.88910967780066" cy="248.6147369623704" fill="indianred" fill-opacity="0.7" r="45.77343750000001" stroke="darkred" stroke-width="2" />
<circle cx="145.62679192482952" cy="279.92900945202996" fill="indianred" fill-opacity="0.7" r="62.12109375000001" stroke="darkred" stroke-width="2" />
<circle cx="243.53125876673204" cy="352.22395769943137" fill="indianred" fill-opacity="0.7" r="63.21093750000001" stroke="darkred" stroke-width="2" />
<circle cx="485.41905898984146" cy="447.4363391773215" fill="indianred" fill-opacity="0.7" r="63.21093750000001" stroke="darkred" stroke-width="2" />
</g>
<polygon points="321.5116398417157,72.89561296262178 299.42263591196433,116.89015046892544 284.74918975207174,145.86137557198026 207.49527147783635,298.2065826793405 137.4364181875688,436.3498416149632 125.09829127694877,460.5189250267357 110.45720491913625,488.8530607991444 106.51471149354742,495.0109733810277 98.69466419665821,486.1359816200969 94.17247117078833,480.9820237747549 87.41670483980906,472.4517188848834 84.87389506623336,468.95890003852253 83.12812879803624,466.4911434934885 70.2646229728079,448.0972947624839 59.573740259140266,430.1798351736086 55.330228556579186,422.6079724992546 45.9376333967553,401.43078560223125 38.718944888049634,382.3348049601285 36.113040870385134,373.5815552189348 32.04387727867197,358.09382949367057 28.035222633084402,333.9649928381755 26.73231513261271,322.1601776428173 26.59276037827891,305.3613392690503 26.655285820033612,298.4712465527775 27.848856723294375,278.1148472404591 29.22848247209339,268.32242997118334 30.445367195465906,261.2429926176525 31.66138733919331,255.44461031986924 33.145223125124176,248.8727114004564 36.520189926600324,237.0313014527445 42.60599512863041,220.43316433864402 51.64555055592626,201.32026386940862 61.648871057217036,183.83048775543472 69.9250684434104,171.86157825119508 73.32000015158604,167.7649101556679 87.5782519555053,150.65433565945037 98.1173592078076,140.46132129265226 106.17133298163293,133.22143108785625 117.64140825935573,124.54067211738843 128.54322178530734,116.43683257889944 139.26329903455257,109.8258835309909 148.53549586120553,104.94887828091089 169.5658328802469,94.69215707251414 175.45748248788303,91.90980009924192 179.31330272168424,90.48580542222811 198.46705901905273,83.72771071092865 211.79795669904672,80.16053860224594 220.09571500768897,77.94327888060059 221.68123238013385,77.61552953045447 251.36927325689203,72.93431959638815 263.8955171465993,71.4849490128741 276.97313326364474,70.96127073131731 321.15693283044857,72.17675975064509" fill="none" stroke="brown" stroke-width="3" />
</svg>
