<?xml version="1.0" encoding="utf-8" ?>
<svg baseProfile="full" height="635" version="1.1" width="635" xmlns="http://www.w3.org/2000/svg" xmlns:ev="http://www.w3.org/2001/xml-events" xmlns:xlink="http://www.w3.org/1999/xlink">
<defs>
<clipPath id="piece_clip_2">
<polygon points="347.7430953844921,550.4817049451328 346.42123381739236,543.5838217096275 310.9167739710817,123.97569062267917 309.63782807246986,108.0291405874263 309.68884169864054,100.81678507768737 311.17608462318526,94.69685384526377 312.039595668105,92.58392360693017 320.3149657568341,75.80482362426488 321.2202128821918,74.6347934684012 324.8606285609376,73.30650604892509 330.2059448558179,73.36000992644335 331.70914456797504,73.42195689152584 337.97557265219456,73.89520755286588 349.3374367819141,75.75409932249966 384.568282415521,84.06068790538507 403.4298498298605,89.89142744487495 409.8188792946965,91.93889312930116 410.798000012852,92.28948616170004 442.79934715319314,105.7646709605101 455.7661721641154,112.44666545483838 469.24382381115186,119.88683123275806 487.43908091822345,131.19107631043838 503.3777288758478,142.4909446705886 511.1314743643605,148.57323770596733 518.9345165338523,155.03898415113315 530.7529973865438,164.91136559927452 539.8921598701099,174.35953754257736 553.0048432276026,188.43839363420912 551.8872564621919,191.5125271604736 549.8635756877266,195.65698903082028 489.93508839328905,301.8568538329809 413.93803538089855,436.2985717294402 366.93004169642137,519.3757387067498 350.7204204767521,547.9303699460385" />
</clipPath>
</defs>
<g clip-path="url(#piece_clip_2)">
<image height="635" width="635" x="0" y="0" xlink:href="uploads/7970639b-6c16-4490-b132-2ef5488d8fd6.jpg" />
<circle cx="314.00762012426753" cy="153.0200516727487" fill="indianred" fill-opacity="0.7" r="43.59375000000001" stroke="darkred" stroke-width="2" />
<circle cx="493.88910967780066" cy="248.6147369623704" fill="indianred" fill-opacity="0.7" r="45.77343750000001" stroke="darkred" stroke-width="2" />
<circle cx="145.62679192482952" cy="279.92900945202996" fill="indianred" fill-opacity="0.7" r="62.12109375000001" stroke="darkred" stroke-width="2" />
<circle cx="243.53125876673204" cy="352.22395769943137" fill="indianred" fill-opacity="0.7" r="63.21093750000001" stroke="darkred" stroke-width="2" />
<circle cx="485.41905898984146" cy="447.4363391773215" fill="indianred" fill-opacity="0.7" r="63.21093750000001" stroke="darkred" stroke-width="2" />
</g>
<polygon points="347.7430953844921,550.4817049451328 346.42123381739236,543.5838217096275 310.9167739710817,123.97569062267917 309.63782807246986,108.0291405874263 309.68884169864054,100.81678507768737 311.17608462318526,94.69685384526377 312.039595668105,92.58392360693017 320.3149657568341,75.80482362426488 321.2202128821918,74.6347934684012 324.8606285609376,73.30650604892509 330.2059448558179,73.36000992644335 331.70914456797504,73.42195689152584 337.97557265219456,73.89520755286588 349.3374367819141,75.75409932249966 384.568282415521,84.06068790538507 403.4298498298605,89.89142744487495 409.8188792946965,91.93889312930116 410.798000012852,92.28948616170004 442.79934715319314,105.7646709605101 455.7661721641154,112.44666545483838 469.24382381115186,119.88683123275806 487.43908091822345,131.19107631043838 503.3777288758478,142.4909446705886 511.1314743643605,148.57323770596733 518.9345165338523,155.03898415113315 530.7529973865438,164.91136559927452 539.8921598701099,174.35953754257736 553.0048432276026,188.43839363420912 551.8872564621919,191.5125271604736 549.8635756877266,195.65698903082028 489.93508839328905,301.8568538329809 413.93803538089855,436.2985717294402 366.93004169642137,519.3757387067498 350.7204204767521,547.9303699460385" fill="none" stroke="brown" stroke-width="3" />
</svg>
