<?xml version="1.0" encoding="utf-8" ?>
<svg baseProfile="full" height="635" version="1.1" width="635" xmlns="http://www.w3.org/2000/svg" xmlns:ev="http://www.w3.org/2001/xml-events" xmlns:xlink="http://www.w3.org/1999/xlink">
<defs>
<clipPath id="piece_clip_3">
<polygon points="108.00926584510887,496.0106103725818 115.0627621206985,480.6713225653583 201.4622383837682,310.1291243883553 275.54764225057653,164.0097683764228 296.06226012996393,123.99548932982569 299.95020362037144,116.67862032724221 306.52406144050775,104.55234439981137 308.92433884044397,104.43732637182984 310.78341972918514,122.94082208369605 310.99087209213894,125.3107418445667 312.6222183505905,144.14880845492308 333.83049428070774,395.08312380863276 338.6696878543034,452.753288771202 342.92609334898987,503.4931335645651 346.1353693364379,544.5128873575625 346.40079432349245,551.5567233809865 340.9774548580632,565.1078754460583 336.2801954882491,573.7449330059155 331.2540442495093,582.6452969744306 320.9636089200157,600.4683752612295 318.7328512010313,602.1880124956897 313.44868224472725,602.7910081997129 306.37066744037844,601.8809573333097 302.57853180629553,601.2611908107077 295.270213708335,599.6791769140752 274.50515245817695,594.6259571335489 255.1668440917273,588.6036775612033 244.07810521080916,585.0420640072015 221.31617985702883,575.9279443654667 195.61526628609982,563.0076086829508 193.1715477081376,561.7247605423988 184.0145538106333,556.5786898836299 179.1023559575303,553.7929420648547 163.98308294211273,543.6807100150401 152.24101150850197,535.519967590632 139.5644803187825,525.6591030339927 132.1298315535613,519.292360205045 115.77732024700617,503.5996186972706" />
</clipPath>
</defs>
<g clip-path="url(#piece_clip_3)">
<image height="635" width="635" x="0" y="0" xlink:href="uploads/281ff6e5-c9db-44c5-8a70-4671aa2aa259.jpg" />
<circle cx="314.00762012426753" cy="153.0200516727487" fill="indianred" fill-opacity="0.7" r="43.59375000000001" stroke="darkred" stroke-width="2" />
<circle cx="493.88910967780066" cy="248.6147369623704" fill="indianred" fill-opacity="0.7" r="45.77343750000001" stroke="darkred" stroke-width="2" />
<circle cx="145.62679192482952" cy="279.92900945202996" fill="indianred" fill-opacity="0.7" r="62.12109375000001" stroke="darkred" stroke-width="2" />
<circle cx="243.53125876673204" cy="352.22395769943137" fill="indianred" fill-opacity="0.7" r="63.21093750000001" stroke="darkred" stroke-width="2" />
<circle cx="485.41905898984146" cy="447.4363391773215" fill="indianred" fill-opacity="0.7" r="63.21093750000001" stroke="darkred" stroke-width="2" />
</g>
<polygon points="108.00926584510887,496.0106103725818 115.0627621206985,480.6713225653583 201.4622383837682,310.1291243883553 275.54764225057653,164.0097683764228 296.06226012996393,123.99548932982569 299.95020362037144,116.67862032724221 306.52406144050775,104.55234439981137 308.92433884044397,104.43732637182984 310.78341972918514,122.94082208369605 310.99087209213894,125.3107418445667 312.6222183505905,144.14880845492308 333.83049428070774,395.08312380863276 338.6696878543034,452.753288771202 342.92609334898987,503.4931335645651 346.1353693364379,544.5128873575625 346.40079432349245,551.5567233809865 340.9774548580632,565.1078754460583 336.2801954882491,573.7449330059155 331.2540442495093,582.6452969744306 320.9636089200157,600.4683752612295 318.7328512010313,602.1880124956897 313.44868224472725,602.7910081997129 306.37066744037844,601.8809573333097 302.57853180629553,601.2611908107077 295.270213708335,599.6791769140752 274.50515245817695,594.6259571335489 255.1668440917273,588.6036775612033 244.07810521080916,585.0420640072015 221.31617985702883,575.9279443654667 195.61526628609982,563.0076086829508 193.1715477081376,561.7247605423988 184.0145538106333,556.5786898836299 179.1023559575303,553.7929420648547 163.98308294211273,543.6807100150401 152.24101150850197,535.519967590632 139.5644803187825,525.6591030339927 132.1298315535613,519.292360205045 115.77732024700617,503.5996186972706" fill="none" stroke="brown" stroke-width="3" />
</svg>
