<svg baseProfile="full" height="400" version="1.1" viewBox="0 0 400 400" width="400" xmlns="http://www.w3.org/2000/svg" xmlns:ev="http://www.w3.org/2001/xml-events" xmlns:xlink="http://www.w3.org/1999/xlink"><defs><clipPath id="piece_clip_1"><polygon points="188.9943139944825,35.1633158601651 190.27028319162744,39.52842285808657 227.59338674925488,109.98686513279088 267.95762583989307,186.0441214861371 284.28101978925037,216.77223493354424 301.95951807336945,250.0054609681129 328.0821497423845,298.9805353395015 330.1478895320575,302.2237855961899 330.894206288956,302.3797746059425 339.68067292536995,290.46765075918864 347.57940794801397,277.2507030447636 348.3823642064488,275.5805978651704 354.753446292056,261.0019401283578 356.4528363404261,257.0364200828563 358.7411792252784,250.39968931884798 359.55445125640097,247.9243278594115 360.5349226169376,244.14072343267176 363.721673109901,230.5682852101762 364.36909069138346,227.0547875764967 364.9419052546574,222.68319118426112 366.1343019553695,211.11733792215367 366.5352406919635,204.36676585652626 366.657513300822,199.89432685341816 366.368443263901,192.57118910022987 366.2692452791915,190.07839559472242 365.627228528885,181.86091545638496 364.4148878371089,173.37953897757458 363.27444062192137,167.23824858055505 361.9675281961324,161.08112059616786 358.9774336880916,150.28738693461534 357.3314701483843,145.10528050234353 354.1210029488889,137.07762044115552 352.20635560118745,132.39057274034545 344.9324302143489,117.7969432536001 339.1239272444631,108.57369921461867 337.0954944422937,105.38582344834491 328.775252655942,94.4121723778202 325.46457882726696,90.51777163026105 318.62858863234806,83.19238177412353 317.6371924271685,82.25093936179233 305.9971037899566,71.76708247606412 297.64403853751486,65.19669863123885 287.51655052317335,58.191930530129376 275.57816155604655,51.65026161508868 268.6830526822273,48.1524928969997 257.9052793631245,44.05823550317798 247.08452640157375,40.29313628587319 239.99708048927076,38.303596451492226 237.3093925565739,37.6255170763124 236.52050298532512,37.430730489266814 225.8358712716898,35.56542565135977 222.24848331698468,34.95338502087697 215.7508303162715,34.29512953496015 211.28295799706734,33.843205710142584 198.850250404383,33.45732452008532 190.26513427433895,33.64315666532533" /></clipPath></defs><rect fill="white" height="400" width="400" x="0" y="0" /><polygon fill="currentColor" opacity="0.8" points="188.9943139944825,35.1633158601651 190.27028319162744,39.52842285808657 227.59338674925488,109.98686513279088 267.95762583989307,186.0441214861371 284.28101978925037,216.77223493354424 301.95951807336945,250.0054609681129 328.0821497423845,298.9805353395015 330.1478895320575,302.2237855961899 330.894206288956,302.3797746059425 339.68067292536995,290.46765075918864 347.57940794801397,277.2507030447636 348.3823642064488,275.5805978651704 354.753446292056,261.0019401283578 356.4528363404261,257.0364200828563 358.7411792252784,250.39968931884798 359.55445125640097,247.9243278594115 360.5349226169376,244.14072343267176 363.721673109901,230.5682852101762 364.36909069138346,227.0547875764967 364.9419052546574,222.68319118426112 366.1343019553695,211.11733792215367 366.5352406919635,204.36676585652626 366.657513300822,199.89432685341816 366.368443263901,192.57118910022987 366.2692452791915,190.07839559472242 365.627228528885,181.86091545638496 364.4148878371089,173.37953897757458 363.27444062192137,167.23824858055505 361.9675281961324,161.08112059616786 358.9774336880916,150.28738693461534 357.3314701483843,145.10528050234353 354.1210029488889,137.07762044115552 352.20635560118745,132.39057274034545 344.9324302143489,117.7969432536001 339.1239272444631,108.57369921461867 337.0954944422937,105.38582344834491 328.775252655942,94.4121723778202 325.46457882726696,90.51777163026105 318.62858863234806,83.19238177412353 317.6371924271685,82.25093936179233 305.9971037899566,71.76708247606412 297.64403853751486,65.19669863123885 287.51655052317335,58.191930530129376 275.57816155604655,51.65026161508868 268.6830526822273,48.1524928969997 257.9052793631245,44.05823550317798 247.08452640157375,40.29313628587319 239.99708048927076,38.303596451492226 237.3093925565739,37.6255170763124 236.52050298532512,37.430730489266814 225.8358712716898,35.56542565135977 222.24848331698468,34.95338502087697 215.7508303162715,34.29512953496015 211.28295799706734,33.843205710142584 198.850250404383,33.45732452008532 190.26513427433895,33.64315666532533" stroke="darkgray" stroke-width="2" /><g clip-path="url(#piece_clip_1)"><circle cx="295.5128205128205" cy="263.46153846153845" fill="indianred" opacity="0.7" r="32.56410256410256" stroke="darkred" stroke-width="1" /><circle cx="283.974358974359" cy="137.82051282051282" fill="indianred" opacity="0.9" r="32.56410256410256" stroke="darkred" stroke-width="1" /></g></svg>
